<!--  moo.svg  -->
<svg xmlns="http://www.w3.org/2000/svg" viewBox="0 0 100 100">
  <path fill="#000" d="M50 0C22.4 0 0 22.4 0 50s22.4 50 50 50 50-22.4 50-50S77.6 0 50 0zm0 92.3c-23.8 0-42.3-18.5-42.3-42.3S26.2 7.7 50 7.7 92.3 26.2 92.3 50 73.8 92.3 50 92.3z"/>
  <path fill="#000" d="M50 15.4c-18.5 0-34.6 11.5-41.1 27.7 6.2-6.2 14.6-10 24-10 18.5 0 34.6 11.5 41.1 27.7-6.2 6.2-14.6 10-24 10-18.5 0-34.6-11.5-41.1-27.7C15.4 33.8 33.8 15.4 50 15.4z"/>
  <path fill="#000" d="M50 84.6c18.5 0 34.6-11.5 41.1-27.7-6.2 6.2-14.6 10-24 10-18.5 0-34.6-11.5-41.1-27.7 6.2-6.2 14.6-10 24-10 18.5 0 34.6 11.5 41.1 27.7C84.6 66.2 66.2 84.6 50 84.6z"/>
</svg>