<svg xmlns="http://www.w3.org/2000/svg" viewBox="0 0 16 16" width="16" height="16">
  <circle cx="8" cy="8" r="7.5" fill="#FED8E2" />
  <path d="M4.5 6.5 C5.5 4 8.5 4 9.5 6.5 C10.5 4 13.5 4 14.5 6.5 L14.5 11.5 C13 11.5 11.5 11.5 10 11.5 C9.5 11.5 9 11.5 8.5 11.5 C7 11.5 5.5 11.5 4 11.5 Z" fill="#FEB5D6" />
  <path d="M7.5 7.5 C8.5 5 11.5 5 12.5 7.5 C13.5 5 16.5 5 17.5 7.5 L17.5 12.5 C16 12.5 14.5 12.5 13 12.5 C12.5 12.5 12 12.5 11.5 12.5 C10 12.5 8.5 12.5 7 12.5 Z" fill="#FEB5D6" />

  <text x="50%" y="50%" dominant-baseline="middle" text-anchor="middle" font-family="Arial, sans-serif" font-size="6" fill="#FF6B9F">KS</text>
</svg>